# Blender 3.4.1
# www.blender.org
mtllib log.mtl
o Cylinder
v 2.995391 -0.703690 0.655280
v 2.995391 -0.923809 0.121577
v 2.862703 -0.496498 0.551162
v 2.862703 -0.653114 0.160595
v 2.995391 -0.703690 0.655280
v 2.995391 -0.923809 0.121577
v 2.862703 -0.496498 0.551162
v 2.862703 -0.653114 0.160595
v 3.055777 -0.180198 -0.820631
v 2.935040 -0.179452 -0.889886
v 2.930159 0.470431 -0.591077
v 3.050666 0.437914 -0.536290
v 2.920040 0.745064 0.079845
v 3.043112 0.697576 0.098112
v 3.038005 0.455509 0.733093
v 2.910276 0.488493 0.749503
v 2.888435 -0.228765 1.021137
v 3.021192 -0.219657 0.990872
v 2.894874 -0.838376 0.721017
v 3.024914 -0.804830 0.705287
v 2.902541 -1.109223 0.027614
v 3.030781 -1.062625 0.054119
v 3.034829 -0.805492 -0.573004
v 2.907116 -0.836377 -0.631218
v -2.271115 0.606937 -0.719610
v -2.394266 0.581373 -0.692235
v -2.394873 -0.043046 -0.952131
v -2.271483 -0.053971 -0.994424
v -2.394595 0.848478 -0.065864
v -2.271762 0.890233 -0.054779
v -2.396417 0.601786 0.564173
v -2.273357 0.628148 0.613705
v -2.409561 -0.019999 0.835468
v -2.289560 -0.031018 0.899712
v -2.409984 -0.656432 0.572839
v -2.289609 -0.701610 0.621919
v -2.288430 -0.982887 -0.053142
v -2.408486 -0.921905 -0.065317
v -2.286753 -0.711785 -0.724097
v -2.406574 -0.665084 -0.697872
vn -0.0288 -0.4417 0.8967
vn 0.0283 0.4178 -0.9081
vn -0.0084 0.3544 0.9351
vn -0.0315 -0.9311 0.3634
vn -0.0165 -0.9237 -0.3827
vn 0.0158 0.9336 0.3579
vn 0.0078 -0.3667 -0.9303
vn -1.0000 -0.0000 -0.0000
vn 0.4655 0.3730 -0.8026
vn 0.3820 0.8569 -0.3462
vn 0.1858 0.3464 0.9195
vn 0.2168 -0.4293 0.8767
vn 0.2538 -0.9000 0.3544
vn 0.4661 -0.3412 -0.8163
vn 0.2760 0.8974 0.3443
vn 0.3690 -0.8596 -0.3534
vn -0.2680 0.8862 -0.3780
vn -0.3299 0.8794 0.3434
vn -0.3291 -0.3524 -0.8761
vn -0.3971 -0.8506 -0.3447
vn -0.2718 0.3696 -0.8885
vn -0.4141 0.3714 0.8311
vn -0.4683 -0.3368 0.8169
vn -0.4494 -0.8249 0.3429
vn 0.0357 0.9251 -0.3781
vn -0.0363 -0.3825 0.9233
vn 0.0329 0.3837 -0.9229
vn -0.0133 0.3983 0.9172
vn -0.0284 -0.9227 0.3844
vn -0.0155 -0.9271 -0.3746
vn 0.0166 0.9309 0.3650
vn 0.0094 -0.3803 -0.9248
vn 0.4634 0.3731 -0.8038
vn 0.3873 0.8553 -0.3443
vn 0.2059 0.3411 0.9172
vn 0.2288 -0.4258 0.8754
vn 0.2736 -0.8935 0.3562
vn 0.4569 -0.3407 -0.8217
vn 0.2927 0.8915 0.3458
vn 0.3829 -0.8556 -0.3483
vn -0.2672 0.8864 -0.3780
vn -0.3271 0.8801 0.3443
vn -0.3312 -0.3517 -0.8756
vn -0.4054 -0.8465 -0.3449
vn -0.2741 0.3698 -0.8878
vn -0.4115 0.3713 0.8324
vn -0.4616 -0.3395 0.8196
vn -0.4529 -0.8235 0.3415
vn 0.0338 0.9194 -0.3918
vt 0.622460 0.122460
vt 0.569632 0.250000
vt 0.656264 0.156264
vt 0.617437 0.250000
vt 0.622460 0.122460
vt 0.569632 0.250000
vt 0.656264 0.156264
vt 0.617437 0.250000
vt 0.766642 0.458006
vt 0.749692 0.462001
vt 0.999527 0.530069
vt 0.749589 0.472581
vt 0.000088 0.530075
vt 0.772581 0.467076
vt 0.875028 0.530028
vt 0.904086 0.406006
vt 0.917362 0.386219
vt 0.874598 0.530030
vt 0.896975 0.398381
vt 0.906695 0.383894
vt 0.750026 0.530046
vt 0.749593 0.530050
vt 0.962710 0.251924
vt 0.959327 0.227686
vt 0.954083 0.251184
vt 0.951535 0.233690
vt 0.892234 0.108808
vt 0.878375 0.097364
vt 0.625027 0.530091
vt 0.624591 0.530094
vt 0.878629 0.089760
vt 0.897084 0.105454
vt 0.516126 0.530095
vt 0.498648 0.530476
vt 0.750132 0.044719
vt 0.727831 0.046430
vt 0.749367 0.050293
vt 0.733020 0.051861
vt 0.390976 0.530068
vt 0.373701 0.530531
vt 0.599385 0.101926
vt 0.587139 0.118681
vt 0.605276 0.107594
vt 0.596702 0.119570
vt 0.248709 0.530361
vt 0.531774 0.252079
vt 0.265890 0.530073
vt 0.536753 0.272878
vt 0.541804 0.251528
vt 0.545273 0.266366
vt 0.615080 0.408643
vt 0.600826 0.400180
vt 0.123587 0.530041
vt 0.593543 0.407801
vt 0.140982 0.530105
vt 0.613251 0.419368
vt 0.875438 0.978233
vt 0.389538 0.389146
vt 0.378762 0.408483
vt 0.859126 0.978328
vt 0.369137 0.369172
vt 0.361844 0.382653
vt 0.235208 0.424084
vt 0.249594 0.419946
vt 0.249433 0.448694
vt 0.983985 0.978323
vt 0.001398 0.978380
vt 0.228657 0.454145
vt 0.419846 0.249545
vt 0.423610 0.264839
vt 0.734009 0.978317
vt 0.454478 0.270875
vt 0.448935 0.248484
vt 0.750415 0.978167
vt 0.607097 0.990461
vt 0.386149 0.135557
vt 0.625422 0.978170
vt 0.412006 0.118072
vt 0.608927 0.978298
vt 0.249696 0.070173
vt 0.504473 0.990460
vt 0.499964 0.978293
vt 0.500427 0.978283
vt 0.248906 0.041538
vt 0.132240 0.110236
vt 0.122376 0.122153
vt 0.102071 0.101769
vt 0.375423 0.978279
vt 0.374966 0.978291
vt 0.115357 0.085717
vt 0.043419 0.249331
vt 0.250420 0.978290
vt 0.249966 0.978297
vt 0.040326 0.229299
vt 0.072402 0.249509
vt 0.070090 0.234898
vt 0.106508 0.392405
vt 0.125422 0.978293
vt 0.124963 0.978292
vt 0.088942 0.381124
vt 0.126971 0.372241
vt 0.114401 0.364536
s 0
usemtl base
f 17/34/1 36/88/1 19/39/1
f 28/66/2 11/15/2 10/11/2
f 16/30/3 34/83/3 17/33/3
f 36/89/4 21/47/4 19/40/4
f 37/93/5 24/55/5 21/45/5
f 13/22/6 32/77/6 16/29/6
f 39/99/7 10/13/7 24/53/7
f 2/2/8 8/8/8 6/6/8
f 3/3/8 5/5/8 7/7/8
f 9/9/9 11/16/9 12/19/9
f 12/20/10 13/23/10 14/25/10
f 15/28/11 17/35/11 18/37/11
f 20/43/12 17/36/12 19/41/12
f 22/49/13 19/42/13 21/46/13
f 9/10/14 24/56/14 10/12/14
f 14/26/15 16/32/15 15/27/15
f 23/52/16 21/48/16 24/54/16
f 29/70/17 25/58/17 26/61/17
f 31/76/18 30/73/18 29/69/18
f 40/101/19 28/68/19 39/97/19
f 38/95/20 39/100/20 37/91/20
f 27/64/21 25/59/21 28/65/21
f 33/81/22 32/79/22 31/75/22
f 35/85/23 34/84/23 33/80/23
f 35/86/24 37/94/24 36/87/24
f 11/18/25 30/74/25 13/21/25
f 17/34/26 34/82/26 36/88/26
f 28/66/27 25/57/27 11/15/27
f 16/30/28 32/79/28 34/83/28
f 36/89/29 37/92/29 21/47/29
f 37/93/30 39/98/30 24/55/30
f 13/22/31 30/71/31 32/77/31
f 39/99/32 28/67/32 10/13/32
f 2/2/8 4/4/8 8/8/8
f 3/3/8 1/1/8 5/5/8
f 9/9/33 10/14/33 11/16/33
f 12/20/34 11/17/34 13/23/34
f 15/28/35 16/31/35 17/35/35
f 20/43/36 18/38/36 17/36/36
f 22/49/37 20/44/37 19/42/37
f 9/10/38 23/51/38 24/56/38
f 14/26/39 13/24/39 16/32/39
f 23/52/40 22/50/40 21/48/40
f 29/70/41 30/72/41 25/58/41
f 31/76/42 32/78/42 30/73/42
f 40/101/43 27/63/43 28/68/43
f 38/95/44 40/102/44 39/100/44
f 27/64/45 26/62/45 25/59/45
f 33/81/46 34/83/46 32/79/46
f 35/85/47 36/90/47 34/84/47
f 35/86/48 38/96/48 37/94/48
f 11/18/49 25/60/49 30/74/49
usemtl level-1
f 1/1/8 6/6/8 5/5/8
f 4/4/8 7/7/8 8/8/8
f 1/1/8 2/2/8 6/6/8
f 4/4/8 3/3/8 7/7/8
o Cylinder.003
o Cylinder.001
v 2.773340 -0.057753 -0.257852
v -2.002351 -0.096027 -0.424865
v 2.773340 0.217389 -0.138980
v -2.002351 0.092753 -0.347719
v 2.773340 0.330456 0.145345
v -2.002351 0.171507 -0.161473
v 2.773340 0.214788 0.428559
v -2.002351 0.093970 0.024773
v 2.773340 -0.062887 0.544769
v -2.002351 -0.094642 0.101918
v 2.773340 -0.339348 0.425909
v -2.002351 -0.283733 0.024773
v 2.773340 -0.451835 0.141596
v -2.002351 -0.362304 -0.161473
v 2.773340 -0.334849 -0.141630
v -2.002351 -0.284456 -0.347719
v -2.350737 0.509066 -0.615989
v -2.350737 -0.024136 -0.838784
v -2.350737 0.736171 -0.084145
v -2.350737 0.523606 0.445300
v -2.350737 -0.003938 0.662105
v -2.350737 -0.536954 0.439165
v -2.350737 -0.763316 -0.092824
v -2.350737 -0.550936 -0.622124
v -2.200022 0.375439 -0.523364
v -2.200022 -0.029274 -0.695510
v -2.200022 0.545097 -0.118940
v -2.200022 0.379982 0.281071
v -2.200022 -0.023477 0.442133
v -2.200022 -0.428652 0.269659
v -2.200022 -0.597828 -0.135094
v -2.200022 -0.432251 -0.534776
v -2.068842 0.216560 -0.435052
v -2.068842 -0.066539 -0.554372
v -2.068842 0.333823 -0.151117
v -2.068842 0.216560 0.131145
v -2.068842 -0.066539 0.246352
v -2.068842 -0.349638 0.126974
v -2.068842 -0.466901 -0.157020
v -2.068842 -0.349637 -0.439223
v 2.995391 -0.172275 -0.622021
v 2.995391 0.359140 -0.396065
v 2.995391 0.579259 0.137828
v 2.995391 0.359140 0.666765
v 2.995391 -0.172275 0.881047
v 2.995391 -0.703690 0.655280
v 2.995391 -0.923809 0.121577
v 2.995391 -0.703690 -0.407549
v 2.862703 -0.102497 -0.391749
v 2.862703 0.282091 -0.229971
v 2.862703 0.439558 0.160595
v 2.862703 0.277065 0.551162
v 2.862703 -0.110951 0.712940
v 2.862703 -0.496498 0.551162
v 2.862703 -0.653114 0.160595
v 2.862703 -0.489663 -0.229971
v 2.995391 -0.703690 0.655280
v 2.995391 -0.923809 0.121577
v 2.862703 -0.496498 0.551162
v 2.862703 -0.653114 0.160595
vn -1.0000 -0.0000 -0.0000
vn 1.0000 -0.0000 -0.0000
vn -0.6640 -0.2927 0.6880
vn -0.7259 -0.6343 0.2661
vn -0.7833 -0.5746 -0.2372
vn -0.8077 -0.2241 -0.5453
vn -0.7918 0.2357 -0.5635
vn -0.7404 0.6185 -0.2632
vn -0.6749 0.6848 0.2748
vn -0.6412 0.2919 0.7097
vn -0.7405 -0.2610 0.6193
vn -0.8090 -0.5433 0.2244
vn -0.8452 -0.4936 -0.2050
vn -0.8360 -0.2035 -0.5097
vn -0.7796 0.2453 -0.5763
vn -0.6982 0.6605 -0.2761
vn -0.6512 0.7011 0.2905
vn -0.6739 0.2784 0.6844
vn -0.8918 -0.1712 0.4189
vn -0.9122 -0.3774 0.1596
vn -0.9180 -0.3663 -0.1522
vn -0.9087 -0.1574 -0.3867
vn -0.8783 0.1857 -0.4405
vn -0.8325 0.5121 -0.2114
vn -0.8187 0.5298 0.2215
vn -0.8545 0.1968 0.4807
vn 0.8095 -0.2276 0.5411
vn 0.7210 -0.6426 0.2591
vn 0.6713 -0.6843 -0.2848
vn 0.7079 -0.2642 -0.6551
vn 0.7999 0.2347 -0.5524
vn 0.8947 0.4124 0.1715
vn 0.8746 0.1869 0.4473
vn 0.7739 -0.2512 0.5814
vn 0.7310 -0.6340 0.2521
vn 0.7603 -0.5997 -0.2495
vn 0.8371 -0.2105 -0.5050
vn 0.8920 0.1749 -0.4169
vn 0.9084 0.3888 -0.1538
vn 0.8925 0.4169 0.1722
vn 0.8443 0.2073 0.4942
vn 0.8711 0.4540 -0.1872
vn -0.6726 -0.2853 0.6828
vn -0.7323 -0.6263 0.2674
vn -0.7904 -0.5685 -0.2282
vn -0.8144 -0.2151 -0.5389
vn -0.7963 0.2369 -0.5566
vn -0.7463 0.6141 -0.2567
vn -0.6885 0.6700 0.2776
vn -0.6565 0.2795 0.7006
vn -0.7380 -0.2641 0.6210
vn -0.8118 -0.5385 0.2259
vn -0.8461 -0.4926 -0.2034
vn -0.8331 -0.2085 -0.5123
vn -0.7775 0.2444 -0.5795
vn -0.7022 0.6581 -0.2717
vn -0.6525 0.6998 0.2908
vn -0.6665 0.2762 0.6924
vn -0.8882 -0.1784 0.4233
vn -0.9101 -0.3829 0.1581
vn -0.9181 -0.3658 -0.1523
vn -0.9082 -0.1584 -0.3873
vn -0.8739 0.1836 -0.4501
vn -0.8278 0.5169 -0.2181
vn -0.8201 0.5284 0.2196
vn -0.8534 0.1964 0.4829
vn 0.8120 -0.2284 0.5371
vn 0.7120 -0.6492 0.2676
vn 0.6715 -0.6842 -0.2846
vn 0.7216 -0.2664 -0.6390
vn 0.8029 0.2306 -0.5496
vn 0.8940 0.4133 0.1730
vn 0.8791 0.1784 0.4419
vn 0.7648 -0.2498 0.5939
vn 0.7249 -0.6389 0.2576
vn 0.7668 -0.5942 -0.2427
vn 0.8378 -0.2108 -0.5036
vn 0.8890 0.1809 -0.4207
vn 0.9070 0.3909 -0.1567
vn 0.8940 0.4133 0.1729
vn 0.8450 0.2062 0.4934
vn 0.8672 0.4622 -0.1853
vt 0.750000 0.346315
vt 0.250000 0.284302
vt 0.818105 0.318105
vt 0.274255 0.274255
vt 0.846315 0.250000
vt 0.284302 0.250000
vt 0.818105 0.181895
vt 0.274255 0.225745
vt 0.750000 0.153685
vt 0.250000 0.215698
vt 0.681895 0.181895
vt 0.225745 0.225745
vt 0.653685 0.250000
vt 0.215698 0.250000
vt 0.681895 0.318105
vt 0.225745 0.274255
vt 0.319107 0.319107
vt 0.250000 0.347732
vt 0.347732 0.250000
vt 0.319107 0.180893
vt 0.250000 0.152268
vt 0.180893 0.180893
vt 0.152268 0.250000
vt 0.180893 0.319107
vt 0.302382 0.302382
vt 0.250000 0.324079
vt 0.324079 0.250000
vt 0.302382 0.197618
vt 0.250000 0.175921
vt 0.197618 0.197618
vt 0.175921 0.250000
vt 0.197618 0.302382
vt 0.286869 0.286869
vt 0.250000 0.302140
vt 0.302140 0.250000
vt 0.286869 0.213131
vt 0.250000 0.197860
vt 0.213131 0.213131
vt 0.197860 0.250000
vt 0.213131 0.286869
vt 0.750000 0.430368
vt 0.877540 0.377540
vt 0.930368 0.250000
vt 0.877540 0.122460
vt 0.750000 0.069632
vt 0.622460 0.122460
vt 0.569632 0.250000
vt 0.622460 0.377540
vt 0.750000 0.382563
vt 0.843736 0.343736
vt 0.882563 0.250000
vt 0.843736 0.156264
vt 0.750000 0.117437
vt 0.656264 0.156264
vt 0.617437 0.250000
vt 0.656264 0.343736
vt 0.622460 0.122460
vt 0.569632 0.250000
vt 0.656264 0.156264
vt 0.617437 0.250000
s 0
usemtl level-1
f 65/127/52 58/120/52 66/128/52
f 67/129/53 57/119/53 65/127/53
f 68/130/54 59/121/54 67/129/54
f 68/130/55 61/123/55 60/122/55
f 69/131/56 62/124/56 61/123/56
f 70/132/57 63/125/57 62/124/57
f 71/133/58 64/126/58 63/125/58
f 72/134/59 58/120/59 64/126/59
f 89/151/76 82/144/76 90/152/76
f 90/152/77 83/145/77 91/153/77
f 92/154/78 83/145/78 84/146/78
f 93/155/79 84/146/79 85/147/79
f 94/156/80 85/147/80 86/148/80
f 96/158/81 87/149/81 88/150/81
f 96/158/82 81/143/82 89/151/82
f 100/162/91 97/159/91 98/160/91
f 65/127/92 57/119/92 58/120/92
f 67/129/93 59/121/93 57/119/93
f 68/130/94 60/122/94 59/121/94
f 68/130/95 69/131/95 61/123/95
f 69/131/96 70/132/96 62/124/96
f 70/132/97 71/133/97 63/125/97
f 71/133/98 72/134/98 64/126/98
f 72/134/99 66/128/99 58/120/99
f 89/151/116 81/143/116 82/144/116
f 90/152/117 82/144/117 83/145/117
f 92/154/118 91/153/118 83/145/118
f 93/155/119 92/154/119 84/146/119
f 94/156/120 93/155/120 85/147/120
f 96/158/121 95/157/121 87/149/121
f 96/158/122 88/150/122 81/143/122
f 100/162/131 99/161/131 97/159/131
usemtl level-2
f 73/135/60 66/128/60 74/136/60
f 75/137/61 65/127/61 73/135/61
f 76/138/62 67/129/62 75/137/62
f 76/138/63 69/131/63 68/130/63
f 77/139/64 70/132/64 69/131/64
f 78/140/65 71/133/65 70/132/65
f 79/141/66 72/134/66 71/133/66
f 74/136/67 72/134/67 80/142/67
f 44/106/68 74/136/68 42/104/68
f 46/108/69 73/135/69 44/106/69
f 46/108/70 76/138/70 75/137/70
f 48/110/71 77/139/71 76/138/71
f 50/112/72 78/140/72 77/139/72
f 52/114/73 79/141/73 78/140/73
f 56/118/74 79/141/74 54/116/74
f 42/104/75 80/142/75 56/118/75
f 41/103/83 90/152/83 43/105/83
f 43/105/84 91/153/84 45/107/84
f 47/109/85 91/153/85 92/154/85
f 49/111/86 92/154/86 93/155/86
f 51/113/87 93/155/87 94/156/87
f 51/113/88 95/157/88 53/115/88
f 53/115/89 96/158/89 55/117/89
f 55/117/90 89/151/90 41/103/90
f 73/135/100 65/127/100 66/128/100
f 75/137/101 67/129/101 65/127/101
f 76/138/102 68/130/102 67/129/102
f 76/138/103 77/139/103 69/131/103
f 77/139/104 78/140/104 70/132/104
f 78/140/105 79/141/105 71/133/105
f 79/141/106 80/142/106 72/134/106
f 74/136/107 66/128/107 72/134/107
f 44/106/108 73/135/108 74/136/108
f 46/108/109 75/137/109 73/135/109
f 46/108/110 48/110/110 76/138/110
f 48/110/111 50/112/111 77/139/111
f 50/112/112 52/114/112 78/140/112
f 52/114/113 54/116/113 79/141/113
f 56/118/114 80/142/114 79/141/114
f 42/104/115 74/136/115 80/142/115
f 41/103/123 89/151/123 90/152/123
f 43/105/124 90/152/124 91/153/124
f 47/109/125 45/107/125 91/153/125
f 49/111/126 47/109/126 92/154/126
f 51/113/127 49/111/127 93/155/127
f 51/113/128 94/156/128 95/157/128
f 53/115/129 95/157/129 96/158/129
f 55/117/130 96/158/130 89/151/130
usemtl leve-3
f 54/116/50 50/112/50 46/108/50
f 47/109/51 51/113/51 55/117/51
f 46/108/50 44/106/50 42/104/50
f 42/104/50 56/118/50 54/116/50
f 54/116/50 52/114/50 50/112/50
f 50/112/50 48/110/50 46/108/50
f 46/108/50 42/104/50 54/116/50
f 55/117/51 41/103/51 43/105/51
f 43/105/51 45/107/51 47/109/51
f 47/109/51 49/111/51 51/113/51
f 51/113/51 53/115/51 55/117/51
f 55/117/51 43/105/51 47/109/51
o Cylinder.004
v 0.758681 0.342328 0.391840
v -0.051970 1.728787 0.548208
v 0.487748 0.224989 0.177085
v -0.227915 1.652587 0.408746
v 0.491706 0.301274 -0.179928
v -0.225344 1.702127 0.176901
v 0.766598 0.494899 -0.322186
v -0.046829 1.827867 0.084519
v 1.037532 0.612238 -0.107431
v 0.129115 1.904067 0.223981
v 1.033574 0.535953 0.249582
v 0.126545 1.854527 0.455825
vn -0.4746 -0.3677 0.7997
vn -0.8958 -0.4325 -0.1023
vn -0.4559 -0.0067 -0.8900
vn 0.4052 0.4839 -0.7756
vn -0.5048 0.8453 0.1750
vn 0.8264 0.5487 0.1264
vn 0.3865 0.1229 0.9141
vn 0.5048 -0.8453 -0.1750
vt -0.000000 0.500000
vt 1.000000 0.500000
vt 0.750000 0.490000
vt 1.000000 1.000000
vt 0.250000 0.490000
vt -0.000000 1.000000
vt 0.833333 0.500000
vt 0.957846 0.370000
vt 0.833333 1.000000
vt 0.457846 0.370000
vt 0.666667 0.500000
vt 0.957846 0.130000
vt 0.666667 1.000000
vt 0.457846 0.130000
vt 0.500000 0.500000
vt 0.750000 0.010000
vt 0.500000 1.000000
vt 0.250000 0.010000
vt 0.333333 0.500000
vt 0.542154 0.130000
vt 0.042154 0.130000
vt 0.333333 1.000000
vt 0.166667 0.500000
vt 0.542154 0.370000
vt 0.042154 0.370000
vt 0.166667 1.000000
s 0
usemtl base
f 101/164/132 104/171/132 103/169/132
f 104/171/133 105/173/133 103/169/133
f 106/175/134 107/177/134 105/173/134
f 108/179/135 109/181/135 107/177/135
f 102/167/136 110/183/136 106/176/136
f 109/181/137 112/188/137 111/185/137
f 111/185/138 102/168/138 101/163/138
f 103/170/139 107/178/139 111/186/139
f 101/164/132 102/166/132 104/171/132
f 104/171/133 106/175/133 105/173/133
f 106/175/134 108/179/134 107/177/134
f 108/179/135 110/184/135 109/181/135
f 106/176/136 104/172/136 102/167/136
f 102/167/136 112/187/136 110/183/136
f 110/183/136 108/180/136 106/176/136
f 109/181/137 110/184/137 112/188/137
f 111/185/138 112/188/138 102/168/138
f 111/186/139 101/165/139 103/170/139
f 103/170/139 105/174/139 107/178/139
f 107/178/139 109/182/139 111/186/139
o Cylinder.005
v -2.350737 0.509066 -0.615989
v -2.350737 -0.024136 -0.838784
v -2.350737 0.736171 -0.084145
v -2.350737 0.523606 0.445300
v -2.350737 -0.003938 0.662105
v -2.350737 -0.536954 0.439165
v -2.350737 -0.763316 -0.092824
v -2.350737 -0.550936 -0.622124
v 2.995391 -0.172275 -0.622021
v 2.995391 0.359140 -0.396065
v 2.995391 0.579259 0.137828
v 2.995391 0.359140 0.666765
v 2.995391 -0.172275 0.881047
v 2.995391 -0.703690 0.655280
v 2.995391 -0.923809 0.121577
v 2.995391 -0.703690 -0.407549
v 3.055777 -0.180198 -0.820631
v 3.050666 0.437914 -0.536290
v 3.043112 0.697576 0.098112
v 3.038005 0.455509 0.733093
v 3.021192 -0.219657 0.990872
v 3.024914 -0.804830 0.705287
v 3.030781 -1.062625 0.054119
v 3.034829 -0.805492 -0.573004
v -2.394266 0.581373 -0.692235
v -2.394873 -0.043046 -0.952131
v -2.394595 0.848478 -0.065864
v -2.396417 0.601786 0.564173
v -2.409561 -0.019999 0.835468
v -2.409984 -0.656432 0.572839
v -2.408486 -0.921905 -0.065317
v -2.406574 -0.665084 -0.697872
vn -0.9505 -0.1182 -0.2875
vn -0.9011 0.1785 0.3952
vn 0.9338 -0.3308 0.1364
vn -0.9392 0.3161 -0.1337
vn -0.9216 0.3605 0.1436
vn -0.9427 0.1288 -0.3079
vn -0.9115 -0.3783 0.1616
vn -0.9301 -0.3409 -0.1369
vn 0.9372 -0.3221 -0.1341
vn 0.9512 -0.1305 -0.2798
vn 0.9507 0.1409 -0.2763
vn 0.9495 0.2946 -0.1081
vn 0.9708 0.2196 0.0963
vn -0.9110 -0.1577 0.3811
vn 0.9545 0.0817 0.2869
vn 0.9451 -0.1279 0.3007
vn -0.9361 -0.1238 -0.3291
vn -0.9304 0.1394 0.3390
vn 0.9187 -0.3616 0.1590
vn -0.9383 0.3182 -0.1354
vn -0.9232 0.3566 0.1431
vn -0.9438 0.1266 -0.3052
vn -0.9099 -0.3818 0.1623
vn -0.9312 -0.3385 -0.1352
vn 0.8984 -0.4127 -0.1501
vn 0.9164 -0.1497 -0.3713
vn 0.9775 0.0825 -0.1941
vn 0.9673 0.2345 -0.0967
vn 0.9746 0.2067 0.0860
vn -0.9143 -0.1562 0.3738
vn 0.9795 0.0755 0.1870
vn 0.9476 -0.1270 0.2932
vt 0.319107 0.319107
vt 0.250000 0.347732
vt 0.347732 0.250000
vt 0.319107 0.180893
vt 0.250000 0.152268
vt 0.180893 0.180893
vt 0.152268 0.250000
vt 0.180893 0.319107
vt 0.750000 0.430368
vt 0.877540 0.377540
vt 0.930368 0.250000
vt 0.877540 0.122460
vt 0.750000 0.069632
vt 0.622460 0.122460
vt 0.569632 0.250000
vt 0.622460 0.377540
vt 0.749692 0.462001
vt 0.766642 0.458006
vt 0.906695 0.383894
vt 0.896975 0.398381
vt 0.954083 0.251184
vt 0.951535 0.233690
vt 0.892234 0.108808
vt 0.878375 0.097364
vt 0.749367 0.050293
vt 0.733020 0.051861
vt 0.605276 0.107594
vt 0.596702 0.119570
vt 0.541804 0.251528
vt 0.545273 0.266366
vt 0.600826 0.400180
vt 0.615080 0.408643
vt 0.369137 0.369172
vt 0.361844 0.382653
vt 0.249594 0.419946
vt 0.235208 0.424084
vt 0.423610 0.264839
vt 0.419846 0.249545
vt 0.373122 0.126030
vt 0.386149 0.135557
vt 0.265778 0.068680
vt 0.249696 0.070173
vt 0.122376 0.122153
vt 0.132240 0.110236
vt 0.072402 0.249509
vt 0.070090 0.234898
vt 0.126971 0.372241
vt 0.114401 0.364536
s 0
usemtl base
f 117/193/140 140/227/140 116/192/140
f 120/196/141 138/224/141 144/235/141
f 122/198/142 131/209/142 123/199/142
f 118/194/143 143/234/143 142/231/143
f 119/195/144 144/236/144 143/233/144
f 118/194/145 141/230/145 117/193/145
f 115/191/146 137/221/146 113/189/146
f 116/192/147 139/226/147 115/191/147
f 123/199/148 132/211/148 124/200/148
f 125/201/149 132/212/149 133/213/149
f 126/202/150 133/214/150 134/215/150
f 127/203/151 134/216/151 135/217/151
f 128/204/152 135/218/152 136/219/152
f 114/190/153 137/222/153 138/223/153
f 121/197/154 136/220/154 129/205/154
f 121/197/155 130/208/155 122/198/155
f 117/193/156 141/229/156 140/227/156
f 120/196/157 114/190/157 138/224/157
f 122/198/158 130/207/158 131/209/158
f 118/194/159 119/195/159 143/234/159
f 119/195/160 120/196/160 144/236/160
f 118/194/161 142/232/161 141/230/161
f 115/191/162 139/225/162 137/221/162
f 116/192/163 140/228/163 139/226/163
f 123/199/164 131/210/164 132/211/164
f 125/201/165 124/200/165 132/212/165
f 126/202/166 125/201/166 133/214/166
f 127/203/167 126/202/167 134/216/167
f 128/204/168 127/203/168 135/218/168
f 114/190/169 113/189/169 137/222/169
f 121/197/170 128/204/170 136/220/170
f 121/197/171 129/206/171 130/208/171
